<?xml version="1.0" encoding="UTF-8"?>
<svg id="Layer_2" xmlns="http://www.w3.org/2000/svg" version="1.1" viewBox="0 0 789.15 533.32">
  <!-- Generator: Adobe Illustrator 30.2.1, SVG Export Plug-In . SVG Version: 2.1.1 Build 1)  -->
  <defs>
    <style>
      .st0 {
        fill: #f4f3ed;
      }

      .st1 {
        fill: #cca84e;
      }
    </style>
  </defs>
  <g>
    <path class="st0" d="M109.88,31.78c49.45,0,71.06,20.17,71.06,71.06v48.01h-64.34v-48.01c0-4.32-2.4-6.24-6.72-6.24h-11.52c-4.32,0-6.72,1.92-6.72,6.24v192.05c0,4.32,2.4,6.24,6.72,6.24h11.52c4.32,0,6.72-1.92,6.72-6.24v-48.49h64.34v48.49c0,50.41-21.61,70.58-71.06,70.58h-12.96c-48.49-.48-69.62-20.65-69.62-70.58V102.84c0-50.41,21.13-70.58,69.62-71.06h12.96Z"/>
    <path class="st0" d="M290.88,35.62c49.45,0,71.06,20.17,71.06,70.58v55.69c0,18.73-5.76,30.73-17.76,37.93,12,6.72,17.76,18.73,17.76,39.37v122.91h-64.34v-122.91c0-4.8-2.4-6.72-6.72-6.72h-18.24v129.63h-64.34V35.62h82.58ZM272.63,168.13h18.24c4.32,0,6.72-1.92,6.72-6.24v-55.69c0-4.32-2.4-6.24-6.72-6.24h-18.24v68.18Z"/>
    <path class="st0" d="M489.16,35.62v64.34h-35.53v68.18h30.25v64.34h-30.25v64.82h35.53v64.82h-99.87V35.62h99.87Z"/>
    <path class="st0" d="M580.86,35.62v326.49h-64.34V35.62h64.34Z"/>
    <path class="st0" d="M690.8,31.78c49.45,0,71.06,20.17,71.06,71.06v48.01h-64.34v-48.01c0-4.32-2.4-6.24-6.72-6.24h-11.52c-4.32,0-6.72,1.92-6.72,6.24v192.05c0,4.32,2.4,6.24,6.72,6.24h11.52c4.32,0,6.72-1.92,6.72-6.24v-48.49h64.34v48.49c0,50.41-21.61,70.58-71.06,70.58h-12.96c-48.49-.48-69.62-20.65-69.62-70.58V102.84c0-50.41,21.12-70.58,69.62-71.06h12.96Z"/>
  </g>
  <g>
    <path class="st1" d="M267.61,459.82v-6.63c0-11.74.01-23.39.25-34.81l12.37-1.42v-5.49h-26.55l-28.52,74.1-30.12-74.1h-24.86v5.49l12.09,1.51v75.85l-12.16,1.73v5.49h30.17v-5.49l-11.04-1.69v-42.41l-.76-25.7,30.74,75.28h6.81l29.16-75.28-.02,33.72c0,11.61-.02,23.24-.25,34.65l-11.37,1.42v5.49h36.71v-5.49l-12.4-1.42c-.23-11.59-.25-23.24-.25-34.81Z"/>
    <path class="st1" d="M314.55,411.48h-12.24v5.49l12.4,1.42c.23,11.59.25,23.24.25,34.81v6.63c0,11.75-.01,23.4-.25,34.81l-12.4,1.42v5.49h38.01v-5.49l-12.4-1.42c-.23-11.59-.25-23.25-.25-34.81v-6.62c0-11.75.01-23.4.25-34.81l12.4-1.42v-5.49h-25.76Z"/>
    <path class="st1" d="M405.46,410.83h-8.41l-28.71,83.53-11.29,1.69v5.49h30.84v-5.49l-13.12-1.8,7.46-21.96h31.23l7.43,22.2-13.23,1.58v5.47h36.63v-5.47l-10.21-1.23-28.63-84ZM384.37,466l13.6-40.03,13.4,40.03h-27Z"/>
    <path class="st1" d="M557.18,459.82v-6.63c0-11.74.01-23.39.25-34.81l12.37-1.42v-5.49h-26.55l-28.52,74.1-30.12-74.1h-24.86v5.49l12.09,1.51v75.85l-12.16,1.73v5.49h30.17v-5.49l-11.04-1.69v-42.41l-.76-25.7,30.74,75.29h6.81l29.16-75.28-.02,33.72c0,11.61-.02,23.24-.25,34.65l-11.37,1.42v5.49h36.71v-5.49l-12.4-1.42c-.23-11.59-.25-23.24-.25-34.81Z"/>
    <path class="st1" d="M617.48,418.39l12.4-1.42v-5.49h-38.01v5.49l12.4,1.42c.23,11.59.25,23.24.25,34.81v6.63c0,11.75-.01,23.4-.25,34.81l-12.4,1.42v5.49h38.01v-5.49l-12.4-1.42c-.23-11.59-.25-23.25-.25-34.81v-6.62c0-11.75.01-23.4.25-34.81Z"/>
  </g>
</svg>