<?xml version="1.0" encoding="UTF-8"?>
<svg id="Layer_2" xmlns="http://www.w3.org/2000/svg" version="1.1" viewBox="0 0 1674.99 452.32">
  <!-- Generator: Adobe Illustrator 30.2.1, SVG Export Plug-In . SVG Version: 2.1.1 Build 1)  -->
  <defs>
    <style>
      .st0 {
        fill: #f4f3ed;
      }

      .st1 {
        fill: #cca84e;
      }
    </style>
  </defs>
  <g>
    <path class="st0" d="M130.72,59.32c49.45,0,71.06,20.17,71.06,71.06v48.01h-64.34v-48.01c0-4.32-2.4-6.24-6.72-6.24h-11.52c-4.32,0-6.72,1.92-6.72,6.24v192.05c0,4.32,2.4,6.24,6.72,6.24h11.52c4.32,0,6.72-1.92,6.72-6.24v-48.49h64.34v48.49c0,50.41-21.61,70.58-71.06,70.58h-12.96c-48.49-.48-69.62-20.65-69.62-70.58v-192.05c0-50.41,21.13-70.58,69.62-71.06h12.96Z"/>
    <path class="st0" d="M311.72,63.16c49.45,0,71.06,20.17,71.06,70.58v55.69c0,18.73-5.76,30.73-17.76,37.93,12,6.72,17.76,18.73,17.76,39.37v122.91h-64.34v-122.91c0-4.8-2.4-6.72-6.72-6.72h-18.24v129.63h-64.34V63.16h82.58ZM293.47,195.67h18.24c4.32,0,6.72-1.92,6.72-6.24v-55.69c0-4.32-2.4-6.24-6.72-6.24h-18.24v68.18Z"/>
    <path class="st0" d="M510,63.16v64.34h-35.53v68.18h30.25v64.34h-30.25v64.82h35.53v64.82h-99.87V63.16h99.87Z"/>
    <path class="st0" d="M601.7,63.16v326.49h-64.34V63.16h64.34Z"/>
    <path class="st0" d="M711.64,59.32c49.45,0,71.06,20.17,71.06,71.06v48.01h-64.34v-48.01c0-4.32-2.4-6.24-6.72-6.24h-11.52c-4.32,0-6.72,1.92-6.72,6.24v192.05c0,4.32,2.4,6.24,6.72,6.24h11.52c4.32,0,6.72-1.92,6.72-6.24v-48.49h64.34v48.49c0,50.41-21.61,70.58-71.06,70.58h-12.96c-48.49-.48-69.62-20.65-69.62-70.58v-192.05c0-50.41,21.12-70.58,69.62-71.06h12.96Z"/>
  </g>
  <g>
    <path class="st1" d="M1026.96,232.18v-10.98c0-19.45.02-38.73.41-57.64l20.49-2.35v-9.09h-43.97l-47.23,122.7-49.88-122.7h-41.17v9.09l20.03,2.49v125.61l-20.14,2.86v9.09h49.96v-9.09l-18.28-2.8v-70.23l-1.26-42.55,50.9,124.67h11.28l48.29-124.66-.03,55.84c0,19.23-.03,38.48-.41,57.38l-18.82,2.34v9.09h60.79v-9.09l-20.53-2.35c-.39-19.19-.41-38.48-.41-57.64Z"/>
    <path class="st1" d="M1104.68,152.13h-20.27v9.09l20.53,2.35c.39,19.2.41,38.49.41,57.64v10.98c0,19.46-.02,38.74-.41,57.64l-20.53,2.35v9.09h62.94v-9.09l-20.54-2.35c-.39-19.2-.41-38.49-.41-57.65v-10.97c0-19.46.02-38.74.41-57.64l20.54-2.35v-9.09h-42.66Z"/>
    <path class="st1" d="M1255.23,151.06h-13.92l-47.54,138.32-18.69,2.8v9.09h51.07v-9.09l-21.73-2.99,12.35-36.37h51.72l12.3,36.76-21.9,2.62v9.06h60.65v-9.06l-16.91-2.04-47.4-139.1ZM1220.3,242.41l22.52-66.29,22.18,66.29h-44.7Z"/>
    <path class="st1" d="M1506.47,232.18v-10.98c0-19.45.02-38.73.41-57.64l20.49-2.35v-9.09h-43.97l-47.23,122.7-49.88-122.7h-41.17v9.09l20.03,2.49v125.61l-20.14,2.86v9.09h49.96v-9.09l-18.28-2.8v-70.23l-1.26-42.55,50.91,124.67h11.27l48.29-124.66-.03,55.84c0,19.23-.03,38.48-.41,57.38l-18.82,2.34v9.09h60.79v-9.09l-20.53-2.35c-.39-19.19-.41-38.48-.41-57.64Z"/>
    <path class="st1" d="M1606.32,163.56l20.54-2.35v-9.09h-62.94v9.09l20.53,2.35c.39,19.2.41,38.49.41,57.64v10.98c0,19.46-.02,38.74-.41,57.64l-20.53,2.35v9.09h62.94v-9.09l-20.54-2.35c-.39-19.2-.41-38.49-.41-57.65v-10.97c0-19.46.02-38.74.41-57.64Z"/>
  </g>
</svg>